<svg width="424px" height="69px" xmlns="http://www.w3.org/2000/svg" version="1.1" xmlns:xlink="http://www.w3.org/1999/xlink">
    <polyline stroke="rgb(0, 0, 0)" fill="rgb(255, 255, 255)" points="13.5,67.8 14,58 0.8,61.8 13.5,50.3 3,53.5 14.5,42.8 4.5,45.8 15.5,36.5 7,38 20.3,27.3 27.8,36 19.8,36 29.3,43.5 18.5,42 28.3,50.3 18,49.3 30.8,59 17.8,57 18.5,65.3"/>
    <polyline stroke="rgb(0, 0, 0)" transform="matrix(1,0,0,1,-0.8,0.6)" fill="rgb(255, 255, 255)" points="34,66 34.5,52.7 21.3,57.8 34,42.1 23.4,46.5 35,31.8 24.9,35.9 36,23.3 27.4,25.3 40.3,8.2 48.3,22.6 40.3,22.6 49.8,32.8 39,30.8 48.8,42.1 38.5,40.7 51.3,54 38.3,51.3 39,62.6"/>
    <polyline stroke="rgb(0, 0, 0)" fill="rgb(255, 255, 255)" points="47.5,65.8 48,58.1 37.3,61 47.5,51.9 39,54.5 48.4,46 40.3,48.4 49.1,41.1 42.3,42.3 53,33.8 59,40.7 52.5,40.7 60.3,46.6 51.5,45.4 59.5,51.9 51.1,51.1 61.5,58.8 51,57.3 51.5,63.8"/>
    <polyline stroke="rgb(0, 0, 0)" fill="rgb(255, 255, 255)" points="64.7,67 65.1,59.3 54.4,62.3 64.7,53.2 56.2,55.8 65.5,47.3 57.5,49.6 66.3,42.3 59.5,43.5 70.2,35 76.2,41.9 69.8,41.9 77.5,47.9 68.8,46.7 76.6,53.2 68.4,52.4 78.7,60.1 68.2,58.5 68.8,65"/>
    <polyline stroke="rgb(0, 0, 0)" fill="rgb(255, 255, 255)" points="81.8,65.3 82.3,50.2 66.5,56.1 81.8,38.4 69.1,43.3 82.9,26.9 71,31.5 84.2,17.2 74,19.5 89.9,3.1 98.9,16.4 89.3,16.4 100.7,28 87.8,25.7 99.5,38.4 87.1,36.9 102.5,51.8 86.9,48.7 87.8,61.5"/>
    <polyline stroke="rgb(0, 0, 0)" fill="rgb(255, 255, 255)" points="140.2,66.3 140.7,53 126.2,58.2 140.2,42.6 128.6,46.9 141.3,32.4 130.3,36.4 142.4,23.8 133,25.9 147.7,11.3 155.9,23.1 147.1,23.1 157.6,33.3 145.7,31.3 156.5,42.6 145.1,41.2 159.2,54.4 144.9,51.7 145.7,62.9"/>
    <polyline stroke="rgb(0, 0, 0)" transform="matrix(0.8,0,0,0.6,34.4,21.2)" fill="rgb(255, 255, 255)" points="185.5,72.2 185.9,64.5 175.2,67.4 185.5,58.3 177,60.9 186.3,52.4 178.2,54.8 187.1,47.5 180.2,48.7 190.9,40.2 197,47.1 190.5,47.1 198.2,53 189.5,51.8 197.4,58.3 189.1,57.5 199.4,65.2 188.9,63.7 189.5,70.2"/>
    <polyline stroke="rgb(0, 0, 0)" transform="matrix(0.8,0,0,0.6,37.9,21.6)" fill="rgb(255, 255, 255)" points="197.9,79.7 198.3,72 187.6,75 197.9,65.9 189.4,68.5 198.7,60 190.7,62.3 199.5,55 192.7,56.2 203.4,47.7 209.4,54.6 203,54.6 210.7,60.6 202,59.4 209.8,65.9 201.6,65.1 211.9,72.8 201.4,71.2 202,77.7"/>
    <polyline stroke="rgb(0, 0, 0)" fill="rgb(255, 255, 255)" points="170.8,85.9 171.2,72.6 158.5,77.7 170.8,62 160.6,66.4 171.7,51.7 162.1,55.8 172.7,43.2 164.5,45.2 176.9,28.1 184.6,42.5 176.9,42.5 186,52.7 175.6,50.7 185.1,62 175.1,60.6 187.5,73.9 174.9,71.2 175.6,82.5" transform="matrix(0.8,0,0,0.6,31,17.8)"/>
    <polyline stroke="rgb(0, 0, 0)" fill="rgb(255, 255, 255)" points="110.1,64.8 110.9,55 90.5,58.7 110.1,47.2 93.9,50.4 111.7,39.6 96.2,42.6 113.2,33.3 100.1,34.8 119.9,22.2 132.3,32.8 119.9,32.8 134.6,40.3 117.9,38.8 133.1,47.2 117.1,46.1 137,55.9 116.8,53.9 117.9,62.3" transform="matrix(1,0,0,1,-0.8,0.6)"/>
    <text font-size="41" textLength="239.2" fill="rgb(255, 255, 255)" stroke="rgb(255, 255, 255)" x="176.3" y="32.3">
        somewhere
    </text>
    <text font-size="36.8" textLength="200.6" fill="rgb(255, 255, 255)" stroke="rgb(255, 255, 255)" x="222.8" y="62.5">
        in the woods
    </text>
</svg>
